<svg xmlns="http://www.w3.org/2000/svg" viewBox="0 0 240 240" aria-label="apeGmsh mark">
<defs><clipPath id="sz-clip">
<path d="M 80 42 C 72 42, 66 48, 66 58 L 66 80 C 58 84, 54 94, 56 108 C 54 122, 58 136, 68 146 L 68 160 C 70 174, 82 182, 96 184 C 106 194, 134 194, 144 184 C 158 182, 170 174, 172 160 L 172 146 C 182 136, 186 122, 184 108 C 186 94, 182 84, 174 80 L 174 58 C 174 48, 168 42, 160 42 C 148 36, 124 34, 120 34 C 116 34, 92 36, 80 42 Z"/>
<ellipse cx="52" cy="108" rx="18" ry="22"/>
<ellipse cx="188" cy="108" rx="18" ry="22"/>
</clipPath></defs>
<g clip-path="url(#sz-clip)" fill="#101820" stroke="rgba(244,240,230,0.4)" stroke-width="0.5" stroke-linejoin="round">
<polygon points="30.1,30.2 40.6,30.5 51.9,30.2"/>
<polygon points="30.1,30.2 51.9,30.2 70.6,29.7"/>
<polygon points="51.9,30.2 57.7,30.2 70.6,29.7"/>
<polygon points="70.6,29.7 79.9,31.9 89.6,30.9"/>
<polygon points="30.1,30.2 70.6,29.7 101.0,28.1"/>
<polygon points="70.6,29.7 89.6,30.9 101.0,28.1"/>
<polygon points="101.0,28.1 108.2,28.8 130.5,28.0"/>
<polygon points="108.2,28.8 119.4,29.3 130.5,28.0"/>
<polygon points="140.5,30.4 149.6,31.9 161.7,31.5"/>
<polygon points="101.0,28.1 130.5,28.0 178.6,27.6"/>
<polygon points="130.5,28.0 140.5,30.4 178.6,27.6"/>
<polygon points="140.5,30.4 161.7,31.5 178.6,27.6"/>
<polygon points="161.7,31.5 169.0,30.7 178.6,27.6"/>
<polygon points="178.6,27.6 191.3,32.6 198.9,28.1"/>
<polygon points="40.6,30.5 30.1,30.2 30.3,40.4"/>
<polygon points="51.9,30.2 40.6,30.5 41.9,38.0"/>
<polygon points="40.6,30.5 30.3,40.4 41.9,38.0"/>
<polygon points="51.9,30.2 41.9,38.0 51.9,41.8"/>
<polygon points="70.6,29.7 57.7,30.2 59.4,37.4"/>
<polygon points="57.7,30.2 51.9,30.2 59.4,37.4"/>
<polygon points="51.9,30.2 51.9,41.8 59.4,37.4"/>
<polygon points="70.6,29.7 59.4,37.4 67.7,41.9"/>
<polygon points="79.9,31.9 70.6,29.7 80.0,40.1"/>
<polygon points="70.6,29.7 67.7,41.9 80.0,40.1"/>
<polygon points="89.6,30.9 79.9,31.9 88.7,40.0"/>
<polygon points="79.9,31.9 80.0,40.1 88.7,40.0"/>
<polygon points="101.0,28.1 89.6,30.9 101.3,37.7"/>
<polygon points="89.6,30.9 88.7,40.0 101.3,37.7"/>
<polygon points="108.2,28.8 101.0,28.1 101.3,37.7"/>
<polygon points="119.4,29.3 108.2,28.8 110.8,37.5"/>
<polygon points="108.2,28.8 101.3,37.7 110.8,37.5"/>
<polygon points="119.4,29.3 110.8,37.5 119.7,40.7"/>
<polygon points="130.5,28.0 119.4,29.3 132.7,39.6"/>
<polygon points="119.4,29.3 119.7,40.7 132.7,39.6"/>
<polygon points="140.5,30.4 130.5,28.0 132.7,39.6"/>
<polygon points="149.6,31.9 140.5,30.4 139.8,39.2"/>
<polygon points="140.5,30.4 132.7,39.6 139.8,39.2"/>
<polygon points="149.6,31.9 139.8,39.2 147.5,41.3"/>
<polygon points="161.7,31.5 149.6,31.9 159.6,41.4"/>
<polygon points="149.6,31.9 147.5,41.3 159.6,41.4"/>
<polygon points="169.0,30.7 161.7,31.5 168.9,40.3"/>
<polygon points="161.7,31.5 159.6,41.4 168.9,40.3"/>
<polygon points="178.6,27.6 169.0,30.7 179.2,41.9"/>
<polygon points="169.0,30.7 168.9,40.3 179.2,41.9"/>
<polygon points="191.3,32.6 178.6,27.6 188.1,37.9"/>
<polygon points="178.6,27.6 179.2,41.9 188.1,37.9"/>
<polygon points="198.9,28.1 191.3,32.6 200.7,40.7"/>
<polygon points="191.3,32.6 188.1,37.9 200.7,40.7"/>
<polygon points="211.3,29.2 198.9,28.1 207.9,39.3"/>
<polygon points="198.9,28.1 200.7,40.7 207.9,39.3"/>
<polygon points="30.3,40.4 30.1,30.2 29.3,52.4"/>
<polygon points="41.9,38.0 30.3,40.4 41.9,50.7"/>
<polygon points="30.3,40.4 29.3,52.4 41.9,50.7"/>
<polygon points="51.9,41.8 41.9,38.0 41.9,50.7"/>
<polygon points="51.9,41.8 41.9,50.7 49.5,52.3"/>
<polygon points="59.4,37.4 51.9,41.8 60.5,49.6"/>
<polygon points="67.7,41.9 59.4,37.4 60.5,49.6"/>
<polygon points="51.9,41.8 49.5,52.3 60.5,49.6"/>
<polygon points="80.0,40.1 67.7,41.9 68.9,50.1"/>
<polygon points="67.7,41.9 60.5,49.6 68.9,50.1"/>
<polygon points="80.0,40.1 68.9,50.1 77.3,52.1"/>
<polygon points="88.7,40.0 80.0,40.1 88.9,49.5"/>
<polygon points="80.0,40.1 77.3,52.1 88.9,49.5"/>
<polygon points="101.3,37.7 88.7,40.0 97.9,47.7"/>
<polygon points="88.7,40.0 88.9,49.5 97.9,47.7"/>
<polygon points="110.8,37.5 101.3,37.7 111.3,50.2"/>
<polygon points="101.3,37.7 97.9,47.7 111.3,50.2"/>
<polygon points="119.7,40.7 110.8,37.5 111.3,50.2"/>
<polygon points="132.7,39.6 119.7,40.7 120.1,47.8"/>
<polygon points="119.7,40.7 111.3,50.2 120.1,47.8"/>
<polygon points="139.8,39.2 132.7,39.6 130.3,50.7"/>
<polygon points="132.7,39.6 120.1,47.8 130.3,50.7"/>
<polygon points="147.5,41.3 139.8,39.2 142.1,52.5"/>
<polygon points="139.8,39.2 130.3,50.7 142.1,52.5"/>
<polygon points="159.6,41.4 147.5,41.3 150.5,50.6"/>
<polygon points="147.5,41.3 142.1,52.5 150.5,50.6"/>
<polygon points="159.6,41.4 150.5,50.6 160.4,49.9"/>
<polygon points="168.9,40.3 159.6,41.4 167.8,50.8"/>
<polygon points="159.6,41.4 160.4,49.9 167.8,50.8"/>
<polygon points="179.2,41.9 168.9,40.3 167.8,50.8"/>
<polygon points="179.2,41.9 167.8,50.8 180.8,52.7"/>
<polygon points="188.1,37.9 179.2,41.9 191.2,48.0"/>
<polygon points="179.2,41.9 180.8,52.7 191.2,48.0"/>
<polygon points="200.7,40.7 188.1,37.9 191.2,48.0"/>
<polygon points="200.7,40.7 191.2,48.0 198.0,50.8"/>
<polygon points="211.3,29.2 207.9,39.3 212.6,49.1"/>
<polygon points="207.9,39.3 200.7,40.7 212.6,49.1"/>
<polygon points="200.7,40.7 198.0,50.8 212.6,49.1"/>
<polygon points="41.9,50.7 29.3,52.4 32.3,59.3"/>
<polygon points="41.9,50.7 32.3,59.3 41.4,60.8"/>
<polygon points="49.5,52.3 41.9,50.7 47.6,58.8"/>
<polygon points="41.9,50.7 41.4,60.8 47.6,58.8"/>
<polygon points="60.5,49.6 49.5,52.3 60.9,60.0"/>
<polygon points="49.5,52.3 47.6,58.8 60.9,60.0"/>
<polygon points="68.9,50.1 60.5,49.6 60.9,60.0"/>
<polygon points="77.3,52.1 68.9,50.1 70.7,58.5"/>
<polygon points="68.9,50.1 60.9,60.0 70.7,58.5"/>
<polygon points="88.9,49.5 77.3,52.1 81.2,59.0"/>
<polygon points="77.3,52.1 70.7,58.5 81.2,59.0"/>
<polygon points="88.9,49.5 81.2,59.0 87.8,60.3"/>
<polygon points="111.3,50.2 97.9,47.7 99.3,58.2"/>
<polygon points="97.9,47.7 88.9,49.5 99.3,58.2"/>
<polygon points="88.9,49.5 87.8,60.3 99.3,58.2"/>
<polygon points="111.3,50.2 99.3,58.2 111.7,62.4"/>
<polygon points="120.1,47.8 111.3,50.2 121.4,57.3"/>
<polygon points="111.3,50.2 111.7,62.4 121.4,57.3"/>
<polygon points="130.3,50.7 120.1,47.8 121.4,57.3"/>
<polygon points="130.3,50.7 121.4,57.3 129.6,61.9"/>
<polygon points="142.1,52.5 130.3,50.7 140.4,61.1"/>
<polygon points="130.3,50.7 129.6,61.9 140.4,61.1"/>
<polygon points="150.5,50.6 142.1,52.5 150.7,57.3"/>
<polygon points="142.1,52.5 140.4,61.1 150.7,57.3"/>
<polygon points="160.4,49.9 150.5,50.6 150.7,57.3"/>
<polygon points="167.8,50.8 160.4,49.9 160.0,60.0"/>
<polygon points="160.4,49.9 150.7,57.3 160.0,60.0"/>
<polygon points="167.8,50.8 160.0,60.0 168.1,61.7"/>
<polygon points="180.8,52.7 167.8,50.8 177.6,57.7"/>
<polygon points="167.8,50.8 168.1,61.7 177.6,57.7"/>
<polygon points="191.2,48.0 180.8,52.7 192.7,60.6"/>
<polygon points="198.0,50.8 191.2,48.0 192.7,60.6"/>
<polygon points="180.8,52.7 177.6,57.7 192.7,60.6"/>
<polygon points="212.6,49.1 198.0,50.8 201.1,61.8"/>
<polygon points="198.0,50.8 192.7,60.6 201.1,61.8"/>
<polygon points="212.6,49.1 201.1,61.8 212.3,62.7"/>
<polygon points="29.3,52.4 30.1,30.2 27.5,68.2"/>
<polygon points="32.3,59.3 29.3,52.4 27.5,68.2"/>
<polygon points="41.4,60.8 32.3,59.3 40.5,69.4"/>
<polygon points="32.3,59.3 27.5,68.2 40.5,69.4"/>
<polygon points="47.6,58.8 41.4,60.8 49.5,70.2"/>
<polygon points="41.4,60.8 40.5,69.4 49.5,70.2"/>
<polygon points="60.9,60.0 47.6,58.8 57.5,67.6"/>
<polygon points="47.6,58.8 49.5,70.2 57.5,67.6"/>
<polygon points="81.2,59.0 70.7,58.5 69.8,68.7"/>
<polygon points="70.7,58.5 60.9,60.0 69.8,68.7"/>
<polygon points="60.9,60.0 57.5,67.6 69.8,68.7"/>
<polygon points="87.8,60.3 81.2,59.0 79.5,71.2"/>
<polygon points="81.2,59.0 69.8,68.7 79.5,71.2"/>
<polygon points="99.3,58.2 87.8,60.3 89.5,69.1"/>
<polygon points="87.8,60.3 79.5,71.2 89.5,69.1"/>
<polygon points="111.7,62.4 99.3,58.2 100.5,69.3"/>
<polygon points="99.3,58.2 89.5,69.1 100.5,69.3"/>
<polygon points="111.7,62.4 100.5,69.3 112.6,68.9"/>
<polygon points="112.6,68.9 120.0,82.0 119.7,68.6"/>
<polygon points="121.4,57.3 111.7,62.4 119.7,68.6"/>
<polygon points="111.7,62.4 112.6,68.9 119.7,68.6"/>
<polygon points="129.6,61.9 121.4,57.3 119.7,68.6"/>
<polygon points="140.4,61.1 129.6,61.9 131.0,69.0"/>
<polygon points="129.6,61.9 119.7,68.6 131.0,69.0"/>
<polygon points="140.4,61.1 131.0,69.0 140.3,70.8"/>
<polygon points="150.7,57.3 140.4,61.1 147.3,68.0"/>
<polygon points="140.4,61.1 140.3,70.8 147.3,68.0"/>
<polygon points="160.0,60.0 150.7,57.3 147.3,68.0"/>
<polygon points="168.1,61.7 160.0,60.0 158.2,71.8"/>
<polygon points="160.0,60.0 147.3,68.0 158.2,71.8"/>
<polygon points="168.1,61.7 158.2,71.8 168.0,71.7"/>
<polygon points="177.6,57.7 168.1,61.7 178.3,70.7"/>
<polygon points="168.1,61.7 168.0,71.7 178.3,70.7"/>
<polygon points="192.7,60.6 177.6,57.7 178.3,70.7"/>
<polygon points="192.7,60.6 178.3,70.7 191.8,71.3"/>
<polygon points="212.3,62.7 201.1,61.8 201.7,67.8"/>
<polygon points="201.1,61.8 192.7,60.6 201.7,67.8"/>
<polygon points="192.7,60.6 191.8,71.3 201.7,67.8"/>
<polygon points="212.3,62.7 201.7,67.8 207.7,71.3"/>
<polygon points="40.5,69.4 27.5,68.2 28.4,77.9"/>
<polygon points="49.5,70.2 40.5,69.4 39.1,77.8"/>
<polygon points="40.5,69.4 28.4,77.9 39.1,77.8"/>
<polygon points="57.5,67.6 49.5,70.2 52.1,80.8"/>
<polygon points="49.5,70.2 39.1,77.8 52.1,80.8"/>
<polygon points="69.8,68.7 57.5,67.6 61.2,80.4"/>
<polygon points="57.5,67.6 52.1,80.8 61.2,80.4"/>
<polygon points="79.5,71.2 69.8,68.7 71.4,81.1"/>
<polygon points="69.8,68.7 61.2,80.4 71.4,81.1"/>
<polygon points="79.5,71.2 71.4,81.1 79.4,81.5"/>
<polygon points="89.5,69.1 79.5,71.2 88.5,78.4"/>
<polygon points="79.5,71.2 79.4,81.5 88.5,78.4"/>
<polygon points="100.5,69.3 89.5,69.1 98.0,80.7"/>
<polygon points="89.5,69.1 88.5,78.4 98.0,80.7"/>
<polygon points="98.0,80.7 98.0,88.0 107.3,80.4"/>
<polygon points="120.0,82.0 112.6,68.9 107.3,80.4"/>
<polygon points="112.6,68.9 100.5,69.3 107.3,80.4"/>
<polygon points="100.5,69.3 98.0,80.7 107.3,80.4"/>
<polygon points="119.7,68.6 120.0,82.0 122.6,82.0"/>
<polygon points="131.0,69.0 119.7,68.6 122.6,82.0"/>
<polygon points="131.0,69.0 122.6,82.0 130.1,82.1"/>
<polygon points="140.3,70.8 131.0,69.0 137.6,80.2"/>
<polygon points="131.0,69.0 130.1,82.1 137.6,80.2"/>
<polygon points="158.2,71.8 147.3,68.0 151.5,78.6"/>
<polygon points="137.6,80.2 142.0,88.0 151.5,78.6"/>
<polygon points="147.3,68.0 140.3,70.8 151.5,78.6"/>
<polygon points="140.3,70.8 137.6,80.2 151.5,78.6"/>
<polygon points="168.0,71.7 158.2,71.8 162.7,78.0"/>
<polygon points="158.2,71.8 151.5,78.6 162.7,78.0"/>
<polygon points="178.3,70.7 168.0,71.7 172.1,79.8"/>
<polygon points="168.0,71.7 162.7,78.0 172.1,79.8"/>
<polygon points="178.3,70.7 172.1,79.8 182.3,82.7"/>
<polygon points="191.8,71.3 178.3,70.7 189.4,79.8"/>
<polygon points="178.3,70.7 182.3,82.7 189.4,79.8"/>
<polygon points="201.7,67.8 191.8,71.3 199.6,77.8"/>
<polygon points="207.7,71.3 201.7,67.8 199.6,77.8"/>
<polygon points="191.8,71.3 189.4,79.8 199.6,77.8"/>
<polygon points="212.3,62.7 207.7,71.3 208.3,77.8"/>
<polygon points="207.7,71.3 199.6,77.8 208.3,77.8"/>
<polygon points="28.4,77.9 27.5,68.2 27.7,92.4"/>
<polygon points="52.1,80.8 39.1,77.8 40.3,90.4"/>
<polygon points="39.1,77.8 28.4,77.9 40.3,90.4"/>
<polygon points="28.4,77.9 27.7,92.4 40.3,90.4"/>
<polygon points="52.1,80.8 40.3,90.4 48.5,92.4"/>
<polygon points="40.3,90.4 44.0,100.0 48.5,92.4"/>
<polygon points="61.2,80.4 52.1,80.8 57.7,91.8"/>
<polygon points="52.1,80.8 48.5,92.4 57.7,91.8"/>
<polygon points="71.4,81.1 61.2,80.4 68.7,87.6"/>
<polygon points="61.2,80.4 57.7,91.8 68.7,87.6"/>
<polygon points="79.4,81.5 71.4,81.1 79.7,89.3"/>
<polygon points="71.4,81.1 68.7,87.6 79.7,89.3"/>
<polygon points="98.0,88.0 98.0,80.7 88.0,89.3"/>
<polygon points="98.0,80.7 88.5,78.4 88.0,89.3"/>
<polygon points="88.5,78.4 79.4,81.5 88.0,89.3"/>
<polygon points="79.4,81.5 79.7,89.3 88.0,89.3"/>
<polygon points="98.0,88.0 88.0,89.3 98.0,92.2"/>
<polygon points="120.0,82.0 107.3,80.4 110.4,89.8"/>
<polygon points="107.3,80.4 98.0,88.0 110.4,89.8"/>
<polygon points="98.0,88.0 98.0,92.2 110.4,89.8"/>
<polygon points="130.1,82.1 122.6,82.0 122.7,89.2"/>
<polygon points="122.6,82.0 120.0,82.0 122.7,89.2"/>
<polygon points="120.0,82.0 110.4,89.8 122.7,89.2"/>
<polygon points="130.1,82.1 122.7,89.2 130.4,90.2"/>
<polygon points="130.4,90.2 138.0,100.0 138.7,90.0"/>
<polygon points="142.0,88.0 137.6,80.2 138.7,90.0"/>
<polygon points="137.6,80.2 130.1,82.1 138.7,90.0"/>
<polygon points="130.1,82.1 130.4,90.2 138.7,90.0"/>
<polygon points="151.5,78.6 142.0,88.0 152.4,88.9"/>
<polygon points="162.7,78.0 151.5,78.6 159.9,89.5"/>
<polygon points="151.5,78.6 152.4,88.9 159.9,89.5"/>
<polygon points="172.1,79.8 162.7,78.0 168.0,88.6"/>
<polygon points="162.7,78.0 159.9,89.5 168.0,88.6"/>
<polygon points="182.3,82.7 172.1,79.8 180.7,87.4"/>
<polygon points="172.1,79.8 168.0,88.6 180.7,87.4"/>
<polygon points="189.4,79.8 182.3,82.7 187.8,91.3"/>
<polygon points="182.3,82.7 180.7,87.4 187.8,91.3"/>
<polygon points="208.3,77.8 199.6,77.8 198.1,88.4"/>
<polygon points="187.8,91.3 196.0,100.0 198.1,88.4"/>
<polygon points="199.6,77.8 189.4,79.8 198.1,88.4"/>
<polygon points="189.4,79.8 187.8,91.3 198.1,88.4"/>
<polygon points="212.3,62.7 208.3,77.8 209.6,91.6"/>
<polygon points="208.3,77.8 198.1,88.4 209.6,91.6"/>
<polygon points="40.3,90.4 27.7,92.4 30.6,100.6"/>
<polygon points="44.0,100.0 40.3,90.4 41.0,99.3"/>
<polygon points="40.3,90.4 30.6,100.6 41.0,99.3"/>
<polygon points="48.5,92.4 44.0,100.0 51.4,102.3"/>
<polygon points="57.7,91.8 48.5,92.4 51.4,102.3"/>
<polygon points="57.7,91.8 51.4,102.3 59.1,101.2"/>
<polygon points="51.4,102.3 52.0,108.0 59.1,101.2"/>
<polygon points="68.7,87.6 57.7,91.8 67.7,98.0"/>
<polygon points="57.7,91.8 59.1,101.2 67.7,98.0"/>
<polygon points="79.7,89.3 68.7,87.6 67.7,98.0"/>
<polygon points="88.0,89.3 79.7,89.3 80.1,101.0"/>
<polygon points="79.7,89.3 67.7,98.0 80.1,101.0"/>
<polygon points="102.0,100.0 98.0,92.2 87.8,102.3"/>
<polygon points="98.0,92.2 88.0,89.3 87.8,102.3"/>
<polygon points="88.0,89.3 80.1,101.0 87.8,102.3"/>
<polygon points="98.0,92.2 102.0,100.0 102.3,98.0"/>
<polygon points="110.4,89.8 98.0,92.2 102.3,98.0"/>
<polygon points="122.7,89.2 110.4,89.8 112.2,99.4"/>
<polygon points="110.4,89.8 102.3,98.0 112.2,99.4"/>
<polygon points="102.3,98.0 102.0,100.0 112.2,99.4"/>
<polygon points="130.4,90.2 122.7,89.2 121.2,100.4"/>
<polygon points="122.7,89.2 112.2,99.4 121.2,100.4"/>
<polygon points="138.0,100.0 130.4,90.2 131.6,102.6"/>
<polygon points="130.4,90.2 121.2,100.4 131.6,102.6"/>
<polygon points="142.0,88.0 138.7,90.0 139.7,98.5"/>
<polygon points="138.7,90.0 138.0,100.0 139.7,98.5"/>
<polygon points="152.4,88.9 142.0,88.0 149.0,101.2"/>
<polygon points="142.0,88.0 139.7,98.5 149.0,101.2"/>
<polygon points="168.0,88.6 159.9,89.5 161.1,97.5"/>
<polygon points="159.9,89.5 152.4,88.9 161.1,97.5"/>
<polygon points="152.4,88.9 149.0,101.2 161.1,97.5"/>
<polygon points="180.7,87.4 168.0,88.6 171.2,97.9"/>
<polygon points="168.0,88.6 161.1,97.5 171.2,97.9"/>
<polygon points="187.8,91.3 180.7,87.4 179.6,101.4"/>
<polygon points="180.7,87.4 171.2,97.9 179.6,101.4"/>
<polygon points="196.0,100.0 187.8,91.3 189.6,102.5"/>
<polygon points="187.8,91.3 179.6,101.4 189.6,102.5"/>
<polygon points="198.1,88.4 196.0,100.0 201.3,97.9"/>
<polygon points="209.6,91.6 198.1,88.4 201.3,97.9"/>
<polygon points="209.6,91.6 201.3,97.9 207.8,98.2"/>
<polygon points="27.7,92.4 27.5,68.2 27.3,112.4"/>
<polygon points="30.6,100.6 27.7,92.4 27.3,112.4"/>
<polygon points="44.0,100.0 41.0,99.3 38.6,110.8"/>
<polygon points="41.0,99.3 30.6,100.6 38.6,110.8"/>
<polygon points="30.6,100.6 27.3,112.4 38.6,110.8"/>
<polygon points="52.0,108.0 51.4,102.3 48.9,109.0"/>
<polygon points="51.4,102.3 44.0,100.0 48.9,109.0"/>
<polygon points="44.0,100.0 38.6,110.8 48.9,109.0"/>
<polygon points="38.6,110.8 44.0,116.0 48.9,109.0"/>
<polygon points="59.1,101.2 52.0,108.0 61.2,111.4"/>
<polygon points="67.7,98.0 59.1,101.2 61.2,111.4"/>
<polygon points="80.1,101.0 67.7,98.0 70.6,112.6"/>
<polygon points="67.7,98.0 61.2,111.4 70.6,112.6"/>
<polygon points="87.8,102.3 80.1,101.0 80.3,111.7"/>
<polygon points="80.1,101.0 70.6,112.6 80.3,111.7"/>
<polygon points="102.0,100.0 87.8,102.3 90.3,109.4"/>
<polygon points="87.8,102.3 80.3,111.7 90.3,109.4"/>
<polygon points="102.0,100.0 90.3,109.4 98.8,112.2"/>
<polygon points="112.2,99.4 102.0,100.0 107.8,110.3"/>
<polygon points="102.0,100.0 98.8,112.2 107.8,110.3"/>
<polygon points="121.2,100.4 112.2,99.4 119.7,110.9"/>
<polygon points="112.2,99.4 107.8,110.3 119.7,110.9"/>
<polygon points="131.6,102.6 121.2,100.4 130.2,108.3"/>
<polygon points="121.2,100.4 119.7,110.9 130.2,108.3"/>
<polygon points="139.7,98.5 138.0,100.0 140.9,108.8"/>
<polygon points="149.0,101.2 139.7,98.5 140.9,108.8"/>
<polygon points="138.0,100.0 131.6,102.6 140.9,108.8"/>
<polygon points="131.6,102.6 130.2,108.3 140.9,108.8"/>
<polygon points="149.0,101.2 140.9,108.8 148.9,107.8"/>
<polygon points="171.2,97.9 161.1,97.5 162.1,109.4"/>
<polygon points="161.1,97.5 149.0,101.2 162.1,109.4"/>
<polygon points="149.0,101.2 148.9,107.8 162.1,109.4"/>
<polygon points="171.2,97.9 162.1,109.4 167.8,110.4"/>
<polygon points="179.6,101.4 171.2,97.9 179.7,108.4"/>
<polygon points="171.2,97.9 167.8,110.4 179.7,108.4"/>
<polygon points="188.0,108.0 189.6,102.5 187.6,107.6"/>
<polygon points="189.6,102.5 179.6,101.4 187.6,107.6"/>
<polygon points="179.6,101.4 179.7,108.4 187.6,107.6"/>
<polygon points="179.7,108.4 188.0,108.0 187.6,107.6"/>
<polygon points="188.0,108.0 196.0,116.0 199.4,112.3"/>
<polygon points="196.0,100.0 189.6,102.5 199.4,112.3"/>
<polygon points="189.6,102.5 188.0,108.0 199.4,112.3"/>
<polygon points="201.3,97.9 196.0,100.0 199.4,112.3"/>
<polygon points="207.8,98.2 201.3,97.9 199.4,112.3"/>
<polygon points="209.6,91.6 207.8,98.2 209.6,112.2"/>
<polygon points="207.8,98.2 199.4,112.3 209.6,112.2"/>
<polygon points="38.6,110.8 27.3,112.4 29.1,119.2"/>
<polygon points="44.0,116.0 38.6,110.8 40.6,117.3"/>
<polygon points="38.6,110.8 29.1,119.2 40.6,117.3"/>
<polygon points="52.0,108.0 48.9,109.0 49.3,120.3"/>
<polygon points="48.9,109.0 44.0,116.0 49.3,120.3"/>
<polygon points="61.2,111.4 52.0,108.0 49.3,120.3"/>
<polygon points="44.0,116.0 40.6,117.3 49.3,120.3"/>
<polygon points="70.6,112.6 61.2,111.4 61.6,121.1"/>
<polygon points="61.2,111.4 49.3,120.3 61.6,121.1"/>
<polygon points="70.6,112.6 61.6,121.1 70.7,122.5"/>
<polygon points="80.3,111.7 70.6,112.6 80.7,118.2"/>
<polygon points="70.6,112.6 70.7,122.5 80.7,118.2"/>
<polygon points="90.3,109.4 80.3,111.7 87.7,118.0"/>
<polygon points="80.3,111.7 80.7,118.2 87.7,118.0"/>
<polygon points="98.8,112.2 90.3,109.4 87.7,118.0"/>
<polygon points="98.8,112.2 87.7,118.0 98.4,121.9"/>
<polygon points="107.8,110.3 98.8,112.2 108.1,118.0"/>
<polygon points="98.8,112.2 98.4,121.9 108.1,118.0"/>
<polygon points="119.7,110.9 107.8,110.3 108.1,118.0"/>
<polygon points="119.7,110.9 108.1,118.0 117.6,121.9"/>
<polygon points="130.2,108.3 119.7,110.9 131.4,117.4"/>
<polygon points="119.7,110.9 117.6,121.9 131.4,117.4"/>
<polygon points="148.9,107.8 140.9,108.8 139.3,117.3"/>
<polygon points="140.9,108.8 130.2,108.3 139.3,117.3"/>
<polygon points="130.2,108.3 131.4,117.4 139.3,117.3"/>
<polygon points="148.9,107.8 139.3,117.3 148.5,121.7"/>
<polygon points="162.1,109.4 148.9,107.8 159.8,117.3"/>
<polygon points="148.9,107.8 148.5,121.7 159.8,117.3"/>
<polygon points="167.8,110.4 162.1,109.4 167.5,117.4"/>
<polygon points="162.1,109.4 159.8,117.3 167.5,117.4"/>
<polygon points="188.0,108.0 179.7,108.4 179.3,120.0"/>
<polygon points="179.7,108.4 167.8,110.4 179.3,120.0"/>
<polygon points="167.8,110.4 167.5,117.4 179.3,120.0"/>
<polygon points="196.0,116.0 188.0,108.0 187.3,122.0"/>
<polygon points="188.0,108.0 179.3,120.0 187.3,122.0"/>
<polygon points="199.4,112.3 196.0,116.0 202.3,118.6"/>
<polygon points="209.6,112.2 199.4,112.3 202.3,118.6"/>
<polygon points="209.6,112.2 202.3,118.6 209.2,117.9"/>
<polygon points="29.1,119.2 27.3,112.4 28.1,127.4"/>
<polygon points="40.6,117.3 29.1,119.2 39.5,131.4"/>
<polygon points="29.1,119.2 28.1,127.4 39.5,131.4"/>
<polygon points="49.3,120.3 40.6,117.3 39.5,131.4"/>
<polygon points="61.6,121.1 49.3,120.3 51.5,129.4"/>
<polygon points="49.3,120.3 39.5,131.4 51.5,129.4"/>
<polygon points="70.7,122.5 61.6,121.1 62.0,129.8"/>
<polygon points="61.6,121.1 51.5,129.4 62.0,129.8"/>
<polygon points="70.7,122.5 62.0,129.8 69.0,130.7"/>
<polygon points="80.7,118.2 70.7,122.5 80.8,130.9"/>
<polygon points="70.7,122.5 69.0,130.7 80.8,130.9"/>
<polygon points="87.7,118.0 80.7,118.2 80.8,130.9"/>
<polygon points="98.4,121.9 87.7,118.0 89.4,131.1"/>
<polygon points="87.7,118.0 80.8,130.9 89.4,131.1"/>
<polygon points="108.1,118.0 98.4,121.9 99.8,129.5"/>
<polygon points="98.4,121.9 89.4,131.1 99.8,129.5"/>
<polygon points="117.6,121.9 108.1,118.0 109.6,132.6"/>
<polygon points="108.1,118.0 99.8,129.5 109.6,132.6"/>
<polygon points="117.6,121.9 109.6,132.6 118.9,130.7"/>
<polygon points="131.4,117.4 117.6,121.9 127.6,130.7"/>
<polygon points="117.6,121.9 118.9,130.7 127.6,130.7"/>
<polygon points="139.3,117.3 131.4,117.4 137.9,130.7"/>
<polygon points="131.4,117.4 127.6,130.7 137.9,130.7"/>
<polygon points="148.5,121.7 139.3,117.3 137.9,130.7"/>
<polygon points="148.5,121.7 137.9,130.7 148.5,131.7"/>
<polygon points="159.8,117.3 148.5,121.7 161.3,128.3"/>
<polygon points="148.5,121.7 148.5,131.7 161.3,128.3"/>
<polygon points="167.5,117.4 159.8,117.3 161.3,128.3"/>
<polygon points="179.3,120.0 167.5,117.4 172.5,129.5"/>
<polygon points="167.5,117.4 161.3,128.3 172.5,129.5"/>
<polygon points="187.3,122.0 179.3,120.0 179.2,128.4"/>
<polygon points="179.3,120.0 172.5,129.5 179.2,128.4"/>
<polygon points="187.3,122.0 179.2,128.4 187.3,132.1"/>
<polygon points="196.0,116.0 187.3,122.0 198.0,130.1"/>
<polygon points="202.3,118.6 196.0,116.0 198.0,130.1"/>
<polygon points="187.3,122.0 187.3,132.1 198.0,130.1"/>
<polygon points="212.3,62.7 209.6,91.6 212.0,132.1"/>
<polygon points="209.6,91.6 209.6,112.2 212.0,132.1"/>
<polygon points="209.6,112.2 209.2,117.9 212.0,132.1"/>
<polygon points="209.2,117.9 202.3,118.6 212.0,132.1"/>
<polygon points="202.3,118.6 198.0,130.1 212.0,132.1"/>
<polygon points="28.1,127.4 27.3,112.4 28.1,142.2"/>
<polygon points="39.5,131.4 28.1,127.4 28.1,142.2"/>
<polygon points="39.5,131.4 28.1,142.2 39.4,140.3"/>
<polygon points="51.5,129.4 39.5,131.4 49.2,139.2"/>
<polygon points="39.5,131.4 39.4,140.3 49.2,139.2"/>
<polygon points="62.0,129.8 51.5,129.4 57.8,137.4"/>
<polygon points="51.5,129.4 49.2,139.2 57.8,137.4"/>
<polygon points="80.8,130.9 69.0,130.7 68.7,137.6"/>
<polygon points="69.0,130.7 62.0,129.8 68.7,137.6"/>
<polygon points="62.0,129.8 57.8,137.4 68.7,137.6"/>
<polygon points="80.8,130.9 68.7,137.6 78.9,140.6"/>
<polygon points="99.8,129.5 89.4,131.1 89.8,138.6"/>
<polygon points="89.4,131.1 80.8,130.9 89.8,138.6"/>
<polygon points="80.8,130.9 78.9,140.6 89.8,138.6"/>
<polygon points="109.6,132.6 99.8,129.5 100.1,140.7"/>
<polygon points="99.8,129.5 89.8,138.6 100.1,140.7"/>
<polygon points="109.6,132.6 100.1,140.7 111.4,142.4"/>
<polygon points="127.6,130.7 118.9,130.7 118.3,139.7"/>
<polygon points="118.9,130.7 109.6,132.6 118.3,139.7"/>
<polygon points="109.6,132.6 111.4,142.4 118.3,139.7"/>
<polygon points="127.6,130.7 118.3,139.7 127.9,141.1"/>
<polygon points="137.9,130.7 127.6,130.7 139.0,138.1"/>
<polygon points="127.6,130.7 127.9,141.1 139.0,138.1"/>
<polygon points="148.5,131.7 137.9,130.7 139.0,138.1"/>
<polygon points="161.3,128.3 148.5,131.7 150.8,138.7"/>
<polygon points="148.5,131.7 139.0,138.1 150.8,138.7"/>
<polygon points="161.3,128.3 150.8,138.7 158.1,140.9"/>
<polygon points="172.5,129.5 161.3,128.3 168.3,138.6"/>
<polygon points="161.3,128.3 158.1,140.9 168.3,138.6"/>
<polygon points="179.2,128.4 172.5,129.5 178.5,137.3"/>
<polygon points="172.5,129.5 168.3,138.6 178.5,137.3"/>
<polygon points="187.3,132.1 179.2,128.4 178.5,137.3"/>
<polygon points="198.0,130.1 187.3,132.1 187.7,137.6"/>
<polygon points="187.3,132.1 178.5,137.3 187.7,137.6"/>
<polygon points="212.0,132.1 198.0,130.1 199.0,140.1"/>
<polygon points="198.0,130.1 187.7,137.6 199.0,140.1"/>
<polygon points="212.0,132.1 199.0,140.1 209.0,142.6"/>
<polygon points="39.4,140.3 28.1,142.2 31.2,151.2"/>
<polygon points="39.4,140.3 31.2,151.2 38.8,150.9"/>
<polygon points="49.2,139.2 39.4,140.3 49.6,152.2"/>
<polygon points="39.4,140.3 38.8,150.9 49.6,152.2"/>
<polygon points="57.8,137.4 49.2,139.2 59.4,151.5"/>
<polygon points="49.2,139.2 49.6,152.2 59.4,151.5"/>
<polygon points="68.7,137.6 57.8,137.4 68.2,148.6"/>
<polygon points="57.8,137.4 59.4,151.5 68.2,148.6"/>
<polygon points="78.9,140.6 68.7,137.6 68.2,148.6"/>
<polygon points="89.8,138.6 78.9,140.6 82.4,148.8"/>
<polygon points="78.9,140.6 68.2,148.6 82.4,148.8"/>
<polygon points="100.1,140.7 89.8,138.6 87.6,152.0"/>
<polygon points="89.8,138.6 82.4,148.8 87.6,152.0"/>
<polygon points="100.1,140.7 87.6,152.0 102.0,148.7"/>
<polygon points="102.0,148.7 106.0,162.0 107.3,148.1"/>
<polygon points="114.0,152.0 111.4,142.4 107.3,148.1"/>
<polygon points="111.4,142.4 100.1,140.7 107.3,148.1"/>
<polygon points="100.1,140.7 102.0,148.7 107.3,148.1"/>
<polygon points="114.0,152.0 120.0,148.0 119.9,147.5"/>
<polygon points="111.4,142.4 114.0,152.0 119.9,147.5"/>
<polygon points="118.3,139.7 111.4,142.4 119.9,147.5"/>
<polygon points="120.0,148.0 126.0,152.0 119.9,147.5"/>
<polygon points="126.0,152.0 127.9,141.1 119.9,147.5"/>
<polygon points="127.9,141.1 118.3,139.7 119.9,147.5"/>
<polygon points="127.9,141.1 126.0,152.0 131.0,151.1"/>
<polygon points="139.0,138.1 127.9,141.1 131.0,151.1"/>
<polygon points="150.8,138.7 139.0,138.1 140.9,150.1"/>
<polygon points="139.0,138.1 131.0,151.1 140.9,150.1"/>
<polygon points="158.1,140.9 150.8,138.7 148.4,152.4"/>
<polygon points="150.8,138.7 140.9,150.1 148.4,152.4"/>
<polygon points="158.1,140.9 148.4,152.4 162.6,150.8"/>
<polygon points="168.3,138.6 158.1,140.9 167.9,149.1"/>
<polygon points="158.1,140.9 162.6,150.8 167.9,149.1"/>
<polygon points="178.5,137.3 168.3,138.6 179.0,150.0"/>
<polygon points="168.3,138.6 167.9,149.1 179.0,150.0"/>
<polygon points="187.7,137.6 178.5,137.3 179.0,150.0"/>
<polygon points="187.7,137.6 179.0,150.0 191.7,152.5"/>
<polygon points="199.0,140.1 187.7,137.6 197.6,148.8"/>
<polygon points="187.7,137.6 191.7,152.5 197.6,148.8"/>
<polygon points="209.0,142.6 199.0,140.1 197.6,148.8"/>
<polygon points="212.0,132.1 209.0,142.6 209.4,152.5"/>
<polygon points="209.0,142.6 197.6,148.8 209.4,152.5"/>
<polygon points="31.2,151.2 28.1,142.2 30.5,159.8"/>
<polygon points="38.8,150.9 31.2,151.2 38.1,160.8"/>
<polygon points="31.2,151.2 30.5,159.8 38.1,160.8"/>
<polygon points="49.6,152.2 38.8,150.9 38.1,160.8"/>
<polygon points="59.4,151.5 49.6,152.2 50.4,159.5"/>
<polygon points="49.6,152.2 38.1,160.8 50.4,159.5"/>
<polygon points="68.2,148.6 59.4,151.5 62.2,159.8"/>
<polygon points="59.4,151.5 50.4,159.5 62.2,159.8"/>
<polygon points="82.4,148.8 68.2,148.6 72.5,158.0"/>
<polygon points="68.2,148.6 62.2,159.8 72.5,158.0"/>
<polygon points="87.6,152.0 82.4,148.8 78.6,160.6"/>
<polygon points="82.4,148.8 72.5,158.0 78.6,160.6"/>
<polygon points="87.6,152.0 78.6,160.6 91.6,159.0"/>
<polygon points="106.0,162.0 102.0,148.7 98.8,157.5"/>
<polygon points="102.0,148.7 87.6,152.0 98.8,157.5"/>
<polygon points="87.6,152.0 91.6,159.0 98.8,157.5"/>
<polygon points="114.0,152.0 107.3,148.1 109.1,161.8"/>
<polygon points="107.3,148.1 106.0,162.0 109.1,161.8"/>
<polygon points="126.0,152.0 120.0,148.0 122.2,158.8"/>
<polygon points="120.0,148.0 114.0,152.0 122.2,158.8"/>
<polygon points="114.0,152.0 109.1,161.8 122.2,158.8"/>
<polygon points="109.1,161.8 112.0,170.0 122.2,158.8"/>
<polygon points="134.0,162.0 131.0,151.1 129.7,159.7"/>
<polygon points="131.0,151.1 126.0,152.0 129.7,159.7"/>
<polygon points="126.0,152.0 122.2,158.8 129.7,159.7"/>
<polygon points="128.0,170.0 134.0,162.0 129.7,159.7"/>
<polygon points="122.2,158.8 128.0,170.0 129.7,159.7"/>
<polygon points="131.0,151.1 134.0,162.0 139.4,159.5"/>
<polygon points="140.9,150.1 131.0,151.1 139.4,159.5"/>
<polygon points="148.4,152.4 140.9,150.1 139.4,159.5"/>
<polygon points="162.6,150.8 148.4,152.4 151.2,157.8"/>
<polygon points="148.4,152.4 139.4,159.5 151.2,157.8"/>
<polygon points="162.6,150.8 151.2,157.8 159.0,158.5"/>
<polygon points="167.9,149.1 162.6,150.8 172.5,158.1"/>
<polygon points="162.6,150.8 159.0,158.5 172.5,158.1"/>
<polygon points="179.0,150.0 167.9,149.1 172.5,158.1"/>
<polygon points="179.0,150.0 172.5,158.1 177.3,160.4"/>
<polygon points="191.7,152.5 179.0,150.0 188.5,157.3"/>
<polygon points="179.0,150.0 177.3,160.4 188.5,157.3"/>
<polygon points="197.6,148.8 191.7,152.5 201.8,161.1"/>
<polygon points="209.4,152.5 197.6,148.8 201.8,161.1"/>
<polygon points="191.7,152.5 188.5,157.3 201.8,161.1"/>
<polygon points="209.4,152.5 201.8,161.1 208.1,161.4"/>
<polygon points="28.1,142.2 27.3,112.4 27.3,167.6"/>
<polygon points="30.5,159.8 28.1,142.2 27.3,167.6"/>
<polygon points="38.1,160.8 30.5,159.8 38.2,167.5"/>
<polygon points="30.5,159.8 27.3,167.6 38.2,167.5"/>
<polygon points="50.4,159.5 38.1,160.8 38.2,167.5"/>
<polygon points="50.4,159.5 38.2,167.5 47.3,172.4"/>
<polygon points="62.2,159.8 50.4,159.5 62.0,171.5"/>
<polygon points="50.4,159.5 47.3,172.4 62.0,171.5"/>
<polygon points="72.5,158.0 62.2,159.8 70.8,170.6"/>
<polygon points="62.2,159.8 62.0,171.5 70.8,170.6"/>
<polygon points="78.6,160.6 72.5,158.0 70.8,170.6"/>
<polygon points="78.6,160.6 70.8,170.6 81.5,168.7"/>
<polygon points="91.6,159.0 78.6,160.6 87.5,169.4"/>
<polygon points="78.6,160.6 81.5,168.7 87.5,169.4"/>
<polygon points="106.0,162.0 98.8,157.5 97.9,168.8"/>
<polygon points="98.8,157.5 91.6,159.0 97.9,168.8"/>
<polygon points="91.6,159.0 87.5,169.4 97.9,168.8"/>
<polygon points="112.0,170.0 109.1,161.8 109.5,168.8"/>
<polygon points="109.1,161.8 106.0,162.0 109.5,168.8"/>
<polygon points="106.0,162.0 97.9,168.8 109.5,168.8"/>
<polygon points="122.2,158.8 112.0,170.0 118.0,172.0"/>
<polygon points="120.0,173.0 128.0,170.0 118.0,172.0"/>
<polygon points="128.0,170.0 122.2,158.8 118.0,172.0"/>
<polygon points="134.0,162.0 128.0,170.0 129.9,172.1"/>
<polygon points="139.4,159.5 134.0,162.0 141.2,168.0"/>
<polygon points="134.0,162.0 129.9,172.1 141.2,168.0"/>
<polygon points="151.2,157.8 139.4,159.5 141.2,168.0"/>
<polygon points="151.2,157.8 141.2,168.0 150.1,170.9"/>
<polygon points="159.0,158.5 151.2,157.8 157.3,169.4"/>
<polygon points="151.2,157.8 150.1,170.9 157.3,169.4"/>
<polygon points="172.5,158.1 159.0,158.5 171.1,171.8"/>
<polygon points="159.0,158.5 157.3,169.4 171.1,171.8"/>
<polygon points="177.3,160.4 172.5,158.1 171.1,171.8"/>
<polygon points="177.3,160.4 171.1,171.8 179.3,170.7"/>
<polygon points="188.5,157.3 177.3,160.4 189.7,168.4"/>
<polygon points="177.3,160.4 179.3,170.7 189.7,168.4"/>
<polygon points="201.8,161.1 188.5,157.3 189.7,168.4"/>
<polygon points="201.8,161.1 189.7,168.4 200.4,172.6"/>
<polygon points="209.4,152.5 208.1,161.4 208.4,167.7"/>
<polygon points="208.1,161.4 201.8,161.1 208.4,167.7"/>
<polygon points="201.8,161.1 200.4,172.6 208.4,167.7"/>
<polygon points="38.2,167.5 27.3,167.6 29.0,179.9"/>
<polygon points="47.3,172.4 38.2,167.5 38.9,181.4"/>
<polygon points="38.2,167.5 29.0,179.9 38.9,181.4"/>
<polygon points="47.3,172.4 38.9,181.4 52.6,179.6"/>
<polygon points="62.0,171.5 47.3,172.4 59.3,177.9"/>
<polygon points="47.3,172.4 52.6,179.6 59.3,177.9"/>
<polygon points="70.8,170.6 62.0,171.5 71.1,179.6"/>
<polygon points="62.0,171.5 59.3,177.9 71.1,179.6"/>
<polygon points="81.5,168.7 70.8,170.6 78.6,177.9"/>
<polygon points="70.8,170.6 71.1,179.6 78.6,177.9"/>
<polygon points="87.5,169.4 81.5,168.7 78.6,177.9"/>
<polygon points="87.5,169.4 78.6,177.9 87.4,180.4"/>
<polygon points="109.5,168.8 97.9,168.8 98.3,180.6"/>
<polygon points="97.9,168.8 87.5,169.4 98.3,180.6"/>
<polygon points="87.5,169.4 87.4,180.4 98.3,180.6"/>
<polygon points="112.0,170.0 109.5,168.8 109.3,182.0"/>
<polygon points="109.5,168.8 98.3,180.6 109.3,182.0"/>
<polygon points="118.0,172.0 112.0,170.0 109.3,182.0"/>
<polygon points="128.0,170.0 120.0,173.0 121.9,177.9"/>
<polygon points="129.9,172.1 128.0,170.0 121.9,177.9"/>
<polygon points="120.0,173.0 118.0,172.0 121.9,177.9"/>
<polygon points="118.0,172.0 109.3,182.0 121.9,177.9"/>
<polygon points="129.9,172.1 121.9,177.9 129.2,179.5"/>
<polygon points="141.2,168.0 129.9,172.1 138.8,178.1"/>
<polygon points="129.9,172.1 129.2,179.5 138.8,178.1"/>
<polygon points="150.1,170.9 141.2,168.0 138.8,178.1"/>
<polygon points="157.3,169.4 150.1,170.9 151.7,178.4"/>
<polygon points="150.1,170.9 138.8,178.1 151.7,178.4"/>
<polygon points="171.1,171.8 157.3,169.4 160.4,177.7"/>
<polygon points="157.3,169.4 151.7,178.4 160.4,177.7"/>
<polygon points="171.1,171.8 160.4,177.7 170.1,180.6"/>
<polygon points="189.7,168.4 179.3,170.7 181.3,179.9"/>
<polygon points="179.3,170.7 171.1,171.8 181.3,179.9"/>
<polygon points="171.1,171.8 170.1,180.6 181.3,179.9"/>
<polygon points="189.7,168.4 181.3,179.9 189.9,182.4"/>
<polygon points="200.4,172.6 189.7,168.4 198.0,181.3"/>
<polygon points="189.7,168.4 189.9,182.4 198.0,181.3"/>
<polygon points="212.0,132.1 209.4,152.5 209.6,181.4"/>
<polygon points="209.4,152.5 208.4,167.7 209.6,181.4"/>
<polygon points="208.4,167.7 200.4,172.6 209.6,181.4"/>
<polygon points="200.4,172.6 198.0,181.3 209.6,181.4"/>
<polygon points="38.9,181.4 29.0,179.9 30.6,191.4"/>
<polygon points="38.9,181.4 30.6,191.4 40.1,191.1"/>
<polygon points="52.6,179.6 38.9,181.4 47.3,188.9"/>
<polygon points="38.9,181.4 40.1,191.1 47.3,188.9"/>
<polygon points="59.3,177.9 52.6,179.6 59.6,190.9"/>
<polygon points="52.6,179.6 47.3,188.9 59.6,190.9"/>
<polygon points="71.1,179.6 59.3,177.9 59.6,190.9"/>
<polygon points="71.1,179.6 59.6,190.9 69.4,190.9"/>
<polygon points="78.6,177.9 71.1,179.6 80.4,190.9"/>
<polygon points="71.1,179.6 69.4,190.9 80.4,190.9"/>
<polygon points="87.4,180.4 78.6,177.9 80.4,190.9"/>
<polygon points="98.3,180.6 87.4,180.4 91.8,187.3"/>
<polygon points="87.4,180.4 80.4,190.9 91.8,187.3"/>
<polygon points="109.3,182.0 98.3,180.6 101.3,191.5"/>
<polygon points="98.3,180.6 91.8,187.3 101.3,191.5"/>
<polygon points="109.3,182.0 101.3,191.5 110.3,190.4"/>
<polygon points="121.9,177.9 109.3,182.0 118.3,188.1"/>
<polygon points="109.3,182.0 110.3,190.4 118.3,188.1"/>
<polygon points="129.2,179.5 121.9,177.9 130.2,188.2"/>
<polygon points="121.9,177.9 118.3,188.1 130.2,188.2"/>
<polygon points="138.8,178.1 129.2,179.5 130.2,188.2"/>
<polygon points="138.8,178.1 130.2,188.2 139.7,189.5"/>
<polygon points="151.7,178.4 138.8,178.1 148.4,187.8"/>
<polygon points="138.8,178.1 139.7,189.5 148.4,187.8"/>
<polygon points="160.4,177.7 151.7,178.4 159.0,191.5"/>
<polygon points="151.7,178.4 148.4,187.8 159.0,191.5"/>
<polygon points="170.1,180.6 160.4,177.7 159.0,191.5"/>
<polygon points="170.1,180.6 159.0,191.5 170.9,191.8"/>
<polygon points="181.3,179.9 170.1,180.6 177.9,188.1"/>
<polygon points="170.1,180.6 170.9,191.8 177.9,188.1"/>
<polygon points="198.0,181.3 189.9,182.4 187.4,190.4"/>
<polygon points="189.9,182.4 181.3,179.9 187.4,190.4"/>
<polygon points="181.3,179.9 177.9,188.1 187.4,190.4"/>
<polygon points="198.0,181.3 187.4,190.4 202.5,191.0"/>
<polygon points="209.6,181.4 198.0,181.3 208.3,189.0"/>
<polygon points="198.0,181.3 202.5,191.0 208.3,189.0"/>
<polygon points="29.0,179.9 27.3,167.6 29.8,197.7"/>
<polygon points="30.6,191.4 29.0,179.9 29.8,197.7"/>
<polygon points="40.1,191.1 30.6,191.4 29.8,197.7"/>
<polygon points="40.1,191.1 29.8,197.7 39.9,202.3"/>
<polygon points="47.3,188.9 40.1,191.1 50.0,199.6"/>
<polygon points="40.1,191.1 39.9,202.3 50.0,199.6"/>
<polygon points="59.6,190.9 47.3,188.9 50.0,199.6"/>
<polygon points="69.4,190.9 59.6,190.9 57.7,200.8"/>
<polygon points="59.6,190.9 50.0,199.6 57.7,200.8"/>
<polygon points="50.0,199.6 39.9,202.3 57.7,200.8"/>
<polygon points="57.7,200.8 39.9,202.3 69.8,202.7"/>
<polygon points="69.4,190.9 57.7,200.8 69.8,202.7"/>
<polygon points="80.4,190.9 69.4,190.9 79.2,198.2"/>
<polygon points="69.4,190.9 69.8,202.7 79.2,198.2"/>
<polygon points="91.8,187.3 80.4,190.9 92.4,200.2"/>
<polygon points="80.4,190.9 79.2,198.2 92.4,200.2"/>
<polygon points="79.2,198.2 69.8,202.7 92.4,200.2"/>
<polygon points="101.3,191.5 91.8,187.3 98.5,198.4"/>
<polygon points="91.8,187.3 92.4,200.2 98.5,198.4"/>
<polygon points="98.5,198.4 92.4,200.2 109.0,200.3"/>
<polygon points="110.3,190.4 101.3,191.5 109.0,200.3"/>
<polygon points="101.3,191.5 98.5,198.4 109.0,200.3"/>
<polygon points="118.3,188.1 110.3,190.4 121.5,202.6"/>
<polygon points="110.3,190.4 109.0,200.3 121.5,202.6"/>
<polygon points="92.4,200.2 69.8,202.7 121.5,202.6"/>
<polygon points="109.0,200.3 92.4,200.2 121.5,202.6"/>
<polygon points="130.2,188.2 118.3,188.1 128.3,200.5"/>
<polygon points="118.3,188.1 121.5,202.6 128.3,200.5"/>
<polygon points="139.7,189.5 130.2,188.2 128.3,200.5"/>
<polygon points="148.4,187.8 139.7,189.5 141.3,200.5"/>
<polygon points="128.3,200.5 121.5,202.6 141.3,200.5"/>
<polygon points="139.7,189.5 128.3,200.5 141.3,200.5"/>
<polygon points="159.0,191.5 148.4,187.8 152.5,200.1"/>
<polygon points="148.4,187.8 141.3,200.5 152.5,200.1"/>
<polygon points="170.9,191.8 159.0,191.5 161.9,199.2"/>
<polygon points="159.0,191.5 152.5,200.1 161.9,199.2"/>
<polygon points="141.3,200.5 121.5,202.6 167.6,202.6"/>
<polygon points="152.5,200.1 141.3,200.5 167.6,202.6"/>
<polygon points="170.9,191.8 161.9,199.2 167.6,202.6"/>
<polygon points="161.9,199.2 152.5,200.1 167.6,202.6"/>
<polygon points="177.9,188.1 170.9,191.8 180.7,197.9"/>
<polygon points="170.9,191.8 167.6,202.6 180.7,197.9"/>
<polygon points="187.4,190.4 177.9,188.1 180.7,197.9"/>
<polygon points="202.5,191.0 187.4,190.4 187.8,198.0"/>
<polygon points="187.4,190.4 180.7,197.9 187.8,198.0"/>
<polygon points="180.7,197.9 167.6,202.6 187.8,198.0"/>
<polygon points="202.5,191.0 187.8,198.0 199.0,201.0"/>
<polygon points="187.8,198.0 167.6,202.6 199.0,201.0"/>
<polygon points="212.0,132.1 209.6,181.4 211.0,199.4"/>
<polygon points="209.6,181.4 208.3,189.0 211.0,199.4"/>
<polygon points="208.3,189.0 202.5,191.0 211.0,199.4"/>
<polygon points="202.5,191.0 199.0,201.0 211.0,199.4"/>
</g></svg>